<svg width="28" height="27" viewBox="0 0 28 27" fill="none" xmlns="http://www.w3.org/2000/svg">
<g clip-path="url(#clip0_75_13)">
<path d="M26.4789 27C25.9593 27 25.454 26.7373 25.1688 26.2652L10.7249 2.27254C10.2957 1.55879 10.5321 0.636538 11.2556 0.211499C11.9781 -0.21354 12.9127 0.0220362 13.3419 0.735781L27.7859 24.7284C28.2151 25.4422 27.9787 26.3644 27.2552 26.7895C27.0116 26.9328 26.7427 27.001 26.4789 27.001V27Z" fill="#FFC400"/>
<path d="M1.52107 27C1.25622 27 0.988326 26.9318 0.744786 26.7884C0.0222843 26.3634 -0.215167 25.4412 0.214072 24.7274L14.658 0.735763C15.0873 0.0220179 16.0218 -0.212556 16.7444 0.211481C17.4669 0.63652 17.7043 1.55877 17.2751 2.27252L2.83111 26.2652C2.54698 26.7383 2.04062 27 1.52107 27Z" fill="#FFC400"/>
<path d="M12.5951 19.5698L9.91919 24.3144C9.34789 25.3279 10.0897 26.5759 11.2637 26.5759H16.7353C17.9225 26.5759 18.6633 25.3038 18.0656 24.2904L15.27 19.5458C14.6692 18.5273 13.1755 18.5413 12.5941 19.5708L12.5951 19.5698Z" fill="#FFC400"/>
</g>
<defs>
<clipPath id="clip0_75_13">
<rect width="28" height="27" fill="white"/>
</clipPath>
</defs>
</svg>
