<svg width="58" height="47" viewBox="0 0 58 47" fill="none" xmlns="http://www.w3.org/2000/svg">
<g clip-path="url(#clip0_75_12)">
<path d="M41.4789 27C40.9593 27 40.454 26.7373 40.1688 26.2652L25.7249 2.27254C25.2957 1.55879 25.5321 0.636538 26.2556 0.211499C26.9781 -0.21354 27.9127 0.0220362 28.3419 0.735781L42.7859 24.7284C43.2151 25.4422 42.9787 26.3644 42.2552 26.7895C42.0116 26.9328 41.7427 27.001 41.4789 27.001V27Z" fill="white"/>
<path d="M16.5211 27C16.2562 27 15.9883 26.9318 15.7448 26.7884C15.0223 26.3634 14.7848 25.4412 15.2141 24.7274L29.658 0.735763C30.0873 0.0220179 31.0218 -0.212556 31.7444 0.211481C32.4669 0.63652 32.7043 1.55877 32.2751 2.27252L17.8311 26.2652C17.547 26.7383 17.0406 27 16.5211 27Z" fill="white"/>
<path d="M27.5951 19.5698L24.9192 24.3144C24.3479 25.3279 25.0897 26.5759 26.2637 26.5759H31.7353C32.9225 26.5759 33.6633 25.3038 33.0656 24.2904L30.27 19.5458C29.6692 18.5273 28.1755 18.5413 27.5941 19.5708L27.5951 19.5698Z" fill="white"/>
</g>
<path d="M6.136 35.084C6.136 37.748 4.772 39.644 2.044 40.772L1.6 40.1C3.056 39.524 4.08 38.716 4.672 37.676L1.708 37.988L1.564 37.232L4.984 36.992C5.12 36.608 5.2 36.216 5.224 35.816H2.056V35.084H6.136ZM3.436 41.084H10.312V44.732H3.436V41.084ZM9.424 44V41.804H4.324V44H9.424ZM7.156 34.58H8.008V37.064H9.448V34.376H10.312V40.568H9.448V37.808H8.008V40.496H7.156V34.58ZM18.0643 35.288V36.032H17.0083V39.14C17.6963 39.076 18.2203 39.024 18.5803 38.984L18.6523 39.656C17.7003 39.808 16.6883 39.912 15.6163 39.968C14.5443 40.016 13.4203 40.04 12.2443 40.04L12.1483 39.272C12.7243 39.272 13.1723 39.268 13.4923 39.26V36.032H12.4363V35.288H18.0643ZM13.5883 42.944C13.5883 42.344 13.9003 41.88 14.5243 41.552C15.1483 41.224 16.0083 41.06 17.1043 41.06C18.2003 41.06 19.0603 41.224 19.6843 41.552C20.3083 41.88 20.6203 42.344 20.6203 42.944C20.6203 43.544 20.3083 44.012 19.6843 44.348C19.0603 44.684 18.2003 44.852 17.1043 44.852C16.0083 44.852 15.1483 44.684 14.5243 44.348C13.9003 44.012 13.5883 43.544 13.5883 42.944ZM14.3563 39.248C15.1483 39.232 15.7403 39.212 16.1323 39.188V36.032H14.3563V39.248ZM14.4763 42.944C14.4763 43.32 14.7083 43.616 15.1723 43.832C15.6443 44.04 16.2883 44.144 17.1043 44.144C17.9203 44.144 18.5603 44.04 19.0243 43.832C19.4883 43.616 19.7203 43.32 19.7203 42.944C19.7203 42.576 19.4883 42.288 19.0243 42.08C18.5603 41.872 17.9203 41.768 17.1043 41.768C16.2883 41.768 15.6443 41.872 15.1723 42.08C14.7083 42.288 14.4763 42.576 14.4763 42.944ZM19.6483 34.388H20.5603V40.832H19.6483V34.388ZM28.3246 35.156V35.9H25.9726V36.356C25.9726 37.052 26.2046 37.688 26.6686 38.264C27.1406 38.832 27.7606 39.244 28.5286 39.5L28.0966 40.196C27.5046 39.996 26.9886 39.696 26.5486 39.296C26.1086 38.896 25.7766 38.428 25.5526 37.892C25.3286 38.5 24.9846 39.032 24.5206 39.488C24.0566 39.944 23.5126 40.284 22.8886 40.508L22.4326 39.8C23.2166 39.52 23.8526 39.068 24.3406 38.444C24.8366 37.812 25.0846 37.12 25.0846 36.368V35.9H22.7086V35.156H28.3246ZM23.8246 42.92C23.8246 42.32 24.1286 41.852 24.7366 41.516C25.3446 41.18 26.1846 41.012 27.2566 41.012C28.3286 41.012 29.1686 41.18 29.7766 41.516C30.3926 41.852 30.7006 42.32 30.7006 42.92C30.7006 43.528 30.3926 44 29.7766 44.336C29.1686 44.68 28.3286 44.852 27.2566 44.852C26.1846 44.852 25.3446 44.68 24.7366 44.336C24.1286 44 23.8246 43.528 23.8246 42.92ZM24.7006 42.92C24.7006 43.304 24.9286 43.604 25.3846 43.82C25.8406 44.036 26.4646 44.144 27.2566 44.144C28.0486 44.144 28.6726 44.036 29.1286 43.82C29.5846 43.604 29.8126 43.304 29.8126 42.92C29.8126 42.552 29.5846 42.264 29.1286 42.056C28.6726 41.84 28.0486 41.732 27.2566 41.732C26.4646 41.732 25.8406 41.84 25.3846 42.056C24.9286 42.264 24.7006 42.552 24.7006 42.92ZM29.6926 34.376H30.5926V37.076H32.1646V37.82H30.5926V40.712H29.6926V34.376ZM41.0745 35.06C41.0745 36.356 40.6425 37.468 39.7785 38.396C38.9225 39.316 37.7265 39.996 36.1905 40.436L35.8185 39.728C37.0825 39.368 38.0905 38.848 38.8425 38.168C39.5945 37.488 40.0145 36.696 40.1025 35.792H36.3585V35.06H41.0745ZM37.5705 40.82H44.3265V44.72H37.5705V40.82ZM43.4385 43.988V41.552H38.4465V43.988H43.4385ZM41.0865 37.1H43.4265V34.376H44.3265V40.376H43.4265V37.856H41.0865V37.1ZM49.2828 35.012V36.44C49.2828 37.048 49.4748 37.624 49.8588 38.168C50.2508 38.712 50.7748 39.116 51.4308 39.38L50.9508 40.076C50.4628 39.868 50.0388 39.58 49.6788 39.212C49.3268 38.844 49.0548 38.42 48.8628 37.94C48.6628 38.468 48.3788 38.944 48.0108 39.368C47.6428 39.792 47.2068 40.116 46.7028 40.34L46.2108 39.632C46.6508 39.432 47.0388 39.16 47.3748 38.816C47.7108 38.464 47.9668 38.08 48.1428 37.664C48.3268 37.248 48.4188 36.84 48.4188 36.44V35.012H49.2828ZM47.9988 41.324H55.0308V44.876H54.1308V42.056H47.9988V41.324ZM51.9108 34.568H52.7628V37.136H54.1668V34.388H55.0308V40.724H54.1668V37.88H52.7628V40.664H51.9108V34.568Z" fill="white"/>
<defs>
<clipPath id="clip0_75_12">
<rect width="28" height="27" fill="white" transform="translate(15)"/>
</clipPath>
</defs>
</svg>
